<?xml version="1.0" encoding="UTF-8" standalone="no"?>
<svg
   xmlns:dc="http://purl.org/dc/elements/1.1/"
   xmlns:cc="http://creativecommons.org/ns#"
   xmlns:rdf="http://www.w3.org/1999/02/22-rdf-syntax-ns#"
   xmlns:svg="http://www.w3.org/2000/svg"
   xmlns="http://www.w3.org/2000/svg"
   xmlns:sodipodi="http://sodipodi.sourceforge.net/DTD/sodipodi-0.dtd"
   xmlns:inkscape="http://www.inkscape.org/namespaces/inkscape"
   width="139.80646mm"
   height="136.07127mm"
   viewBox="0 0 139.80646 136.07127"
   version="1.1"
   id="svg8"
   inkscape:version="1.0.2-2 (e86c870879, 2021-01-15)"
   sodipodi:docname="PHEM.svg">
  <defs
     id="defs2">
    <rect
       x="-315.9881"
       y="58.208332"
       width="992.56549"
       height="99.785713"
       id="rect30" />
    <rect
       x="58.964287"
       y="133.80357"
       width="70.303574"
       height="64.255951"
       id="rect24" />
  </defs>
  <sodipodi:namedview
     id="base"
     pagecolor="#ffffff"
     bordercolor="#666666"
     borderopacity="1.0"
     inkscape:pageopacity="0.0"
     inkscape:pageshadow="2"
     inkscape:zoom="0.75811588"
     inkscape:cx="256.68048"
     inkscape:cy="304.11727"
     inkscape:document-units="mm"
     inkscape:current-layer="layer1"
     inkscape:document-rotation="0"
     showgrid="false"
     inkscape:window-width="1920"
     inkscape:window-height="1051"
     inkscape:window-x="-9"
     inkscape:window-y="1341"
     inkscape:window-maximized="1"
     inkscape:snap-page="false"
     inkscape:snap-bbox="true"
     inkscape:snap-global="true"
     inkscape:bbox-paths="true"
     inkscape:bbox-nodes="true"
     inkscape:snap-bbox-edge-midpoints="true"
     inkscape:snap-bbox-midpoints="true"
     inkscape:pagecheckerboard="true"
     fit-margin-top="0"
     fit-margin-left="0"
     fit-margin-right="0"
     fit-margin-bottom="0" />
  <metadata
     id="metadata5">
    <rdf:RDF>
      <cc:Work
         rdf:about="">
        <dc:format>image/svg+xml</dc:format>
        <dc:type
           rdf:resource="http://purl.org/dc/dcmitype/StillImage" />
        <dc:title></dc:title>
      </cc:Work>
    </rdf:RDF>
  </metadata>
  <g
     inkscape:label="Layer 1"
     inkscape:groupmode="layer"
     id="layer1"
     transform="translate(-37.086624,-68.03564)">
    <path
       id="path12"
       style="fill:#000000;stroke-width:0.999999"
       transform="scale(0.26458333)"
       d="m 404.28516,257.14258 a 264.2857,257.14285 0 0 0 -35.79493,2.36914 c -48.34222,54.56117 -95.87584,109.84617 -143.55273,164.99023 -30.88501,35.72223 -58.64431,68.15568 -84.76758,98.97852 a 264.2857,257.14285 0 0 0 56.52344,149.94336 C 443.10814,514.35281 480.52258,491.46832 634.57422,388.12305 A 264.2857,257.14285 0 0 0 404.28516,257.14258 Z m -83.3086,13.11133 a 264.2857,257.14285 0 0 0 -90.41797,50.25586 c -0.0368,0.0652 -0.10738,0.11962 -0.20117,0.16992 a 264.2857,257.14285 0 0 0 -10.92383,9.83203 c 0.31195,0.0917 0.0147,0.19139 -0.25195,0.24023 a 264.2857,257.14285 0 0 0 -0.37891,0.36133 c 0.0428,0.0151 0.0136,0.0327 -0.0527,0.0508 a 264.2857,257.14285 0 0 0 -75.82422,144.9668 c 19.06605,-22.34845 39.02299,-45.59708 60.54102,-70.47852 39.08903,-45.1989 78.09265,-90.48291 117.50976,-135.39843 z M 647.55273,413.79297 C 498.01661,514.06303 455.85407,540.14652 216.14453,694.875 a 264.2857,257.14285 0 0 0 111.37891,65.46875 C 447.87582,639.42944 511.93792,579.72079 658.72852,444.76562 a 264.2857,257.14285 0 0 0 -11.17579,-30.97265 z m 18.24024,63.30859 c -132.82021,122.16412 -196.7086,181.823 -305.43555,290.75 a 264.2857,257.14285 0 0 0 43.92774,3.57617 264.2857,257.14285 0 0 0 264.28711,-257.14257 264.2857,257.14285 0 0 0 -2.7793,-37.1836 z" />
    <path
       id="text149"
       style="font-style:normal;font-variant:normal;font-weight:normal;font-stretch:normal;font-size:50.8px;line-height:13.75;font-family:'Bungee Inline';-inkscape-font-specification:'Bungee Inline';fill:#0000ff;stroke-width:0.321154"
       d="m 48.392087,102.94318 c -0.549791,0 -0.955134,0.26213 -1.215566,0.78771 -0.231495,0.46717 -0.347052,1.25625 -0.347052,2.36583 v 36.41938 c 2.17662,0.75312 3.451982,1.22823 4.861383,1.83741 v -33.52694 h 5.544892 c -0.08778,-0.26265 -0.174178,-0.52698 -0.262718,-0.78862 -0.82161,-2.42773 -1.70089,-4.77266 -2.595388,-7.09477 z m 11.691604,0 c 0.177933,0.50511 0.35477,1.01194 0.528087,1.52373 0.730371,2.15677 1.43629,4.34686 2.126467,6.55747 0.620318,0.15899 1.16482,0.41159 1.627086,0.76544 0.868096,0.58398 1.533663,1.40201 1.996654,2.45317 0.462992,1.05116 0.780993,2.30664 0.954614,3.76659 0.173622,1.45993 0.260512,3.03631 0.260512,4.72985 v 5.02837 c 0.366381,1.42802 0.730743,2.85809 1.10827,4.27364 0.736618,2.76195 1.474963,5.5221 2.21213,8.28349 0.67972,-2.57698 1.019962,-5.6058 1.01996,-9.08813 v -11.21249 c 2e-6,-5.08063 -0.723332,-9.1978 -2.170179,-12.35128 -1.446846,-3.1535 -4.137741,-4.72985 -8.073164,-4.72985 z m 17.910731,0 c -0.549803,0 -0.955133,0.26213 -1.215566,0.78771 -0.231496,0.46717 -0.347052,1.25625 -0.347052,2.36583 v 32.03258 c 1.201084,-3.35145 2.291792,-6.43442 3.174248,-8.98209 0.513852,-1.48353 1.016226,-2.98307 1.513607,-4.48927 v -13.83137 h 0.434036 v 12.50276 c 1.107159,-3.38814 2.189235,-6.81052 3.276689,-10.22426 0.482912,-1.51598 0.968938,-3.02872 1.45444,-4.54185 v -2.4665 c 0,-1.10958 -0.130334,-1.89866 -0.390767,-2.36583 -0.231495,-0.52558 -0.622049,-0.78771 -1.171851,-0.78771 z m 17.101824,0 c -0.549801,0 -0.955133,0.26213 -1.215565,0.78771 -0.231496,0.46717 -0.347053,1.25625 -0.347053,2.36583 v 19.00853 h -7.115899 c -0.978675,2.99697 -1.972427,5.97383 -2.977762,8.93488 h 14.781518 v -23.21356 h 0.434036 v 37.02086 c 1.577269,0.005 3.154119,0.004 4.731129,-0.0109 v -41.7409 c 0,-1.10957 -0.13034,-1.89865 -0.39077,-2.36583 -0.23149,-0.52557 -0.62205,-0.78772 -1.17185,-0.78772 z m 15.842984,0 c -0.5498,0 -0.95514,0.26213 -1.21556,0.78771 -0.2315,0.46717 -0.34706,1.25625 -0.34706,2.36583 v 41.64022 c 1.57695,-0.0389 3.15413,-0.0879 4.73113,-0.14796 v -36.76245 h 5.85751 c -1.94491,-2.77573 -3.83785,-5.33223 -6.02882,-7.88339 z m 11.40108,0 c 1.22249,1.73166 2.47794,3.56429 3.89086,5.62806 0.51294,0.74921 1.02383,1.50432 1.53614,2.25533 h 0.96785 v 0.87593 h -0.37089 c 1.39141,2.04223 2.78243,4.0856 4.17125,6.13509 0.0705,-0.41922 0.1064,-0.91546 0.1064,-1.49255 v -10.24832 c 0,-1.10958 -0.13031,-1.89866 -0.39075,-2.36583 -0.2315,-0.52558 -0.62205,-0.78771 -1.17186,-0.78771 z m 16.98569,0 c -0.5498,0 -0.95469,0.26213 -1.21513,0.78771 -0.23149,0.46717 -0.34748,1.25625 -0.34748,2.36583 v 19.46208 c 1.78071,2.63023 3.40803,5.03583 4.6013,6.81591 v -18.83302 c 0,-0.93438 0.0864,-1.60593 0.26008,-2.01473 0.20255,-0.46717 0.49189,-0.70039 0.86807,-0.70039 h 0.73826 c 0.23149,0 0.46304,0.11652 0.69454,0.35019 0.2315,0.1752 0.43395,0.55483 0.60758,1.1388 l 5.29541,16.29343 c 0.49193,1.51834 0.85337,2.51081 1.08487,2.978 0.23149,0.46717 0.60772,0.70128 1.12858,0.70128 0.52086,0 0.89709,-0.23411 1.12859,-0.70128 0.23149,-0.46719 0.59337,-1.45966 1.0853,-2.978 l 5.29542,-16.29343 c 0.17362,-0.58397 0.36174,-0.9636 0.5643,-1.1388 0.23149,-0.23359 0.46304,-0.35019 0.69454,-0.35019 h 0.73782 c 0.40511,0 0.69445,0.23322 0.86807,0.70039 0.20255,0.4088 0.30378,1.08035 0.30378,2.01473 v 33.35229 c 0.69355,0.0109 1.38704,0.0122 2.08055,-0.007 0.94155,-0.0272 1.88306,-0.0648 2.82455,-0.099 v -40.69125 c 0,-1.10957 -0.13033,-1.89864 -0.39076,-2.36582 -0.23151,-0.52558 -0.62206,-0.78772 -1.17186,-0.78772 h -7.032 c -0.463,0 -0.85355,0.20428 -1.17187,0.61306 -0.28937,0.40878 -0.56436,1.08038 -0.8248,2.01473 l -3.86304,14.2778 c -0.14469,0.52559 -0.27458,0.90522 -0.39034,1.1388 -0.0868,0.2336 -0.21714,0.35109 -0.39076,0.35109 h -0.39076 c -0.17362,0 -0.31829,-0.11748 -0.43403,-0.35109 -0.0868,-0.23358 -0.20238,-0.61321 -0.34706,-1.1388 l -3.90677,-14.2778 c -0.26043,-0.93435 -0.54977,-1.60595 -0.86808,-2.01473 -0.28937,-0.40878 -0.66558,-0.61306 -1.12857,-0.61306 z m -87.201112,8.75932 v 28.29361 h 8.941236 c 1.273223,0 2.30067,-0.26213 3.081967,-0.78771 0.384819,-0.24962 0.725741,-0.54748 1.025703,-0.88929 -0.172077,-0.64545 -0.345024,-1.28994 -0.517046,-1.93544 -0.717552,-2.69251 -1.382274,-5.44482 -2.114547,-8.12042 -4.53e-4,1.10772 -0.130687,2.09876 -0.390764,2.97355 -0.260432,0.87597 -0.809993,1.31344 -1.649163,1.31344 h -3.906769 v -13.22631 h 3.325259 c -0.775895,-2.56885 -1.567655,-5.11772 -2.393163,-7.62143 z m 62.416892,0 v 21.98654 h 10.67783 v 0.87594 h -10.67783 v 13.00621 c 1.51918,-0.0596 3.03824,-0.12686 4.55759,-0.20671 v -5.44095 h 8.46394 c 0.5498,0 0.94036,-0.23321 1.17185,-0.70038 0.26043,-0.52558 0.39077,-1.3436 0.39077,-2.45316 v -9.37329 c 0,-1.10956 -0.13034,-1.89774 -0.39077,-2.36492 -0.23149,-0.52558 -0.62205,-0.78772 -1.17185,-0.78772 h -8.46394 v -6.74549 h 6.80992 c -0.77754,-1.1421 -1.55411,-2.28696 -2.33266,-3.42622 -1.0502,-1.5367 -2.03471,-2.98308 -2.99675,-4.36985 z m 28.95106,0 c -0.28938,0 -0.47705,0.20428 -0.56384,0.61306 -0.0868,0.35038 -0.13027,0.75895 -0.13027,1.22613 v 19.47995 c 1.9622,2.93416 3.28883,4.9775 4.5576,7.02527 v -8.02152 l 2.56051,9.54793 c 0.26043,0.99278 0.56454,1.72221 0.91179,2.18939 0.37617,0.40879 0.83929,0.61307 1.38909,0.61307 h 1.73615 c 0.54979,0 0.99813,-0.20428 1.34537,-0.61307 0.37619,-0.46718 0.69463,-1.19661 0.95506,-2.18939 l 2.56094,-9.54793 v 14.74563 c 0.0611,9.1e-4 0.0507,8e-5 0.1126,9.1e-4 1.45262,0.0184 2.9054,0.082 4.35802,0.1123 v -33.34248 c 0,-0.46718 -0.0577,-0.87573 -0.17353,-1.22613 -0.0868,-0.40879 -0.27491,-0.61307 -0.56428,-0.61307 h -0.65128 c -0.20256,0 -0.37589,0.0588 -0.52058,0.17556 -0.14468,0.11679 -0.30413,0.46659 -0.47775,1.05057 l -5.29541,16.1179 c -0.52087,1.57675 -0.92577,2.65779 -1.21513,3.24174 -0.26042,0.58399 -0.70921,0.87593 -1.34582,0.87593 -0.63662,0 -1.09928,-0.29194 -1.38865,-0.87593 -0.26044,-0.58395 -0.65144,-1.66499 -1.17229,-3.24174 l -5.29543,-16.1179 c -0.17363,-0.58398 -0.34696,-0.93378 -0.52058,-1.05057 -0.14469,-0.1168 -0.31846,-0.17556 -0.52101,-0.17556 z m -80.451254,0.3012 c 0.984306,3.18246 1.938736,6.40354 2.884154,9.63257 0.427854,1.46132 0.826166,2.95612 1.217332,4.45898 v -3.35582 c 0,-1.57674 -0.08689,-3.03651 -0.260509,-4.37965 -0.144684,-1.34316 -0.434018,-2.51098 -0.868073,-3.50375 -0.434053,-0.99275 -1.056165,-1.75202 -1.866399,-2.27759 -0.325317,-0.24316 -0.695903,-0.43283 -1.106505,-0.57474 z m 20.10078,22.91237 c -0.526506,1.54511 -1.055494,3.08613 -1.588671,4.62203 v 18.59065 h -0.434036 v -17.34492 c -1.537812,4.40852 -3.10167,8.7813 -4.687855,13.12029 v 7.14202 c 0.44066,1.64923 0.8809,3.29893 1.321536,4.94817 0.07733,0.0109 0.156979,0.0186 0.241082,0.0186 h 6.727784 c 0.549802,0 0.940356,-0.23409 1.171851,-0.70126 0.260433,-0.52559 0.390767,-1.3427 0.390767,-2.45227 v -19.44695 h 7.248804 v 4.44026 c 0.173363,-0.0285 0.351694,-0.0472 0.540889,-0.0445 1.382449,0.0205 2.764834,0.031 4.146968,0.0374 V 134.916 Z m 54.621024,2.06908 v 9.68963 c 0.4165,-0.007 0.83305,-0.0109 1.24956,-0.0188 1.80951,-2e-5 2.15057,0.001 3.35174,9.1e-4 v -2.77126 c -1.17419,-1.80119 -2.66356,-4.0291 -4.6013,-6.90053 z m -72.378099,2.12612 c -0.302057,0.33338 -0.640505,0.62957 -1.01996,0.88484 -0.839171,0.58399 -1.939172,0.87594 -3.299207,0.87594 h -8.941236 v 3.67216 c 1.248427,0.54855 2.772353,1.25143 5.449961,2.45224 0.668551,0.29983 1.211123,0.76213 1.638562,1.32148 h 2.460717 c 2.351517,0 4.254972,-0.56715 5.717976,-1.69306 -0.668678,-2.50481 -1.338745,-5.00811 -2.006813,-7.5136 z m 77.413439,5.44096 v 2.10561 c 0.45777,-2.5e-4 0.85288,2.2e-4 1.34317,0 -0.42359,-0.67556 -0.87212,-1.37732 -1.34317,-2.10561 z m -95.969261,7.31041 v 10.99685 c 0,1.10956 0.115557,1.92669 0.347052,2.45226 0.260432,0.46718 0.665775,0.70128 1.215566,0.70128 h 6.727784 c 0.549801,0 0.940357,-0.2341 1.171852,-0.70128 0.260433,-0.52557 0.390767,-1.3427 0.390767,-2.45226 v -6.82747 c -0.03324,-0.0137 -0.06482,-0.0225 -0.09846,-0.0374 -2.014303,-0.90334 -3.376356,-1.52583 -4.459138,-2.01294 v 4.14711 h -0.434036 v -4.33959 c -1.705195,-0.76086 -2.79232,-1.20182 -4.861383,-1.9265 z m 92.225871,4.01077 c -0.43064,0.008 -0.86131,0.0122 -1.29195,0.0188 v 6.96737 c 0,1.10955 0.11599,1.92667 0.34748,2.45224 0.26044,0.46721 0.66533,0.7013 1.21513,0.7013 h 6.46772 c 0.5498,0 0.94036,-0.23409 1.17185,-0.7013 0.26043,-0.52557 0.39076,-1.34269 0.39076,-2.45224 v -6.9834 c -1.08955,-0.004 -2.9994,-0.001 -4.5576,-9.2e-4 v 2.25356 h -0.43404 v -2.25445 c -1.18998,9.1e-4 -1.52355,-9.2e-4 -3.30935,-9.2e-4 z m -6.41342,0.0936 c -1.94641,0.029 -3.89275,0.0658 -5.83895,0.13449 -2.42426,0.0858 -4.84666,0.33311 -7.27044,0.46247 -1.66368,0.0888 -3.32729,0.16156 -4.99075,0.22633 v 0.46247 h 14.19338 v 0.87594 h -14.62742 v -1.32148 c -1.5771,0.0595 -3.15407,0.11026 -4.73113,0.14881 v 5.90343 c 0,1.10957 0.11556,1.92668 0.34706,2.45227 0.26042,0.46718 0.66576,0.70127 1.21556,0.70127 h 20.14008 c 0.54981,0 0.94036,-0.23409 1.17186,-0.70127 0.26044,-0.52559 0.39075,-1.3427 0.39075,-2.45227 z m 26.17332,0.0205 v 3.43691 c 1.16759,1.97382 2.45076,4.13686 3.91031,6.58865 h 4.33683 c 0.5498,0 0.94035,-0.23409 1.17186,-0.70127 0.26043,-0.52559 0.39076,-1.34271 0.39076,-2.45227 v -6.85508 c -0.95419,0.0344 -1.90827,0.0723 -2.86253,0.0999 -0.6808,0.0196 -1.36171,0.0173 -2.04257,0.007 v 2.01742 h -0.43404 v -2.02631 c -1.46049,-0.0302 -2.92096,-0.0956 -4.38142,-0.11394 -0.0491,-4.7e-4 -0.0407,-2.5e-4 -0.0892,-9.2e-4 z m -65.281612,0.97752 v 5.8945 c 0,1.10956 0.115557,1.92668 0.347053,2.45227 0.260432,0.46718 0.665764,0.70127 1.215565,0.70127 h 6.727784 c 0.5498,0 0.94036,-0.23409 1.17185,-0.70127 0.26043,-0.52559 0.39077,-1.34271 0.39077,-2.45227 v -5.80451 c -1.57693,0.0138 -3.15394,0.0155 -4.731129,0.0109 v 1.06396 h -0.434036 v -1.06573 c -1.382207,-0.007 -2.76446,-0.0173 -4.146968,-0.0374 -0.189195,-0.004 -0.367528,-0.0271 -0.540889,-0.0606 z" />
  </g>
</svg>
